<?xml version="1.0" encoding="utf-8"?>
<!-- Generator: Adobe Illustrator 16.0.0, SVG Export Plug-In . SVG Version: 6.00 Build 0)  -->
<!DOCTYPE svg PUBLIC "-//W3C//DTD SVG 1.1//EN" "http://www.w3.org/Graphics/SVG/1.1/DTD/svg11.dtd">
<svg version="1.1" id="Layer_1" xmlns="http://www.w3.org/2000/svg" xmlns:xlink="http://www.w3.org/1999/xlink" x="0px" y="0px"
	 width="800px" height="200px" viewBox="0 0 800 200" enable-background="new 0 0 800 200" xml:space="preserve">
<g>
	<g>
		<g transform="translate(-98.000000, -47.000000)">
			<g id="Page-1_1_" transform="translate(98.000000, 47.000000)">
				<g id="Clip-30_1_">
				</g>
				<path id="Fill-53_1_" fill="#465681" d="M78.865,167.663c-38.13,0-69.067-29.85-69.242-66.739c0,0.223-0.012,0.434-0.012,0.657
					c0,45.475,38.059,82.341,85.019,82.341c42.446,0,77.627-30.142,83.991-69.522h-31.977
					C140.07,144.808,112.223,167.663,78.865,167.663"/>
				<path id="Fill-54_1_" fill="#465681" d="M109.368,34.174c38.13,0,69.066,29.85,69.242,66.739c0-0.222,0.012-0.433,0.012-0.654
					c0-45.476-38.059-82.341-85.019-82.341c-42.458,0-77.627,30.128-83.991,69.522h31.989
					C48.173,57.016,76.01,34.174,109.368,34.174"/>
			</g>
		</g>
	</g>
	<g>
		<g transform="translate(0.000000,511.000000) scale(0.100000,-0.100000)">
			<path fill="#465681" d="M910.43,4557.504c-189.536-18.496-345.093-151.406-391.929-335.098
				c-10-39.272-13.032-64.38-13.032-108.55c0-43.232,2.837-66.836,12.275-105.537c8.501-33.984,17.183-57.939,32.842-89.844
				c27.378-55.518,62.681-101.582,108.184-140.849c65.503-56.26,143.467-91.738,230.679-104.951c29.644-4.521,90.82-4.336,120.83,0
				c49.077,7.363,91.938,20.771,134.976,41.895c90.42,44.561,159.331,113.467,203.887,203.906
				c21.147,43.037,34.551,85.889,41.909,134.98c4.336,30,4.531,91.167,0,120.82c-7.549,49.644-22.09,96.084-43.618,138.745
				c-66.265,131.011-190.098,220.322-335.283,241.641C987.651,4558.266,934.023,4559.775,910.43,4557.504z M1154.722,4263.007
				c4.717-1.885-0.186-5.85-99.497-79.287c-57.388-42.48-104.961-77.041-105.713-76.836c-0.752,0.19-38.135,27.559-83.071,60.801
				c-44.922,33.228-91.748,67.778-104.209,76.831c-20.947,15.474-22.09,16.606-17.935,18.32
				C750.718,4265.454,1148.11,4265.454,1154.722,4263.007z M828.125,4133.676c55.122-40.22,102.5-75.513,105.347-78.169
				c4.336-3.955,7.168-4.893,15.298-4.893c6.03,0,11.518,1.133,14.355,3.213c2.637,1.68,53.237,38.877,112.319,82.495
				l107.607,79.106l0.562-109.688l0.386-109.893l-5.103-10.371c-3.96-7.568-7.739-11.699-14.521-16.064l-9.253-5.645l-203.31-0.566
				l-203.33-0.381l-10.2,5.283c-7.368,3.779-11.694,7.734-15.859,14.541l-5.654,9.053l-0.586,112.329l-0.391,112.334l6.035-4.707
				C725.234,4209.199,773.184,4174.082,828.125,4133.676z"/>
		</g>
	</g>
</g>
<g>
	<polygon fill="#878786" points="256.359,139.842 294.875,139.842 294.875,133.019 264.116,133.019 264.116,108.331 
		294.657,108.331 294.657,101.508 264.116,101.508 264.116,77.51 294.875,77.51 294.875,70.68 256.359,70.68 	"/>
	<polygon fill="#878786" points="222.332,70.68 214.016,70.68 214.016,139.842 249.711,139.842 249.711,132.303 222.332,132.303 	
		"/>
	<rect x="307.21" y="70.68" fill="#878786" width="8.317" height="69.153"/>
	<path fill="#878786" d="M358.195,102.827v-0.27c6.701-2.578,10.831-8.465,10.831-15.148c0-5.417-2.042-9.54-5.355-12.249
		c-3.975-3.503-9.277-5.015-17.577-5.015c-5.732,0-11.453,0.629-15.104,1.485v68.045c2.778,0.342,7.11,0.769,12.842,0.769
		c10.492,0,17.698-2.018,22.111-6.49c3.302-3.302,5.476-7.87,5.476-13.777C371.419,109.834,364.291,104.418,358.195,102.827z
		 M339.244,77.659c1.346-0.34,3.53-0.646,7.366-0.646c8.367,0,13.995,3.25,13.995,11.26c0,6.709-5.129,11.68-13.787,11.68h-7.583
		V77.659H339.244L339.244,77.659z M346.216,133.501c-2.988,0-5.276-0.09-6.963-0.456V106.68h6.885
		c9.025,0.02,16.563,3.957,16.563,13.358C362.701,130.103,354.804,133.501,346.216,133.501z"/>
	<path fill="#878786" d="M408.592,69.552c-17.098,0-29.651,14.406-29.651,36.314c0,20.899,11.804,35.103,28.786,35.103
		c16.327,0,29.711-12.667,29.711-36.402C437.438,84.02,426.081,69.552,408.592,69.552z M408.171,133.7
		c-13.042,0-20.485-13.243-20.485-28.042c0-15.131,6.84-28.837,20.59-28.837c13.76,0,20.416,14.371,20.416,28.138
		C428.684,120.676,421.311,133.7,408.171,133.7z"/>
	<path fill="#878786" d="M470.467,104.392l19.534-33.704h-9.584l-8.692,16.25c-2.341,4.395-4.017,7.583-5.835,11.689h-0.209
		c-1.781-3.766-3.556-7.26-5.924-11.707l-8.518-16.24h-9.566l18.854,34.123l-19.604,35.031h9.54l7.706-15.228
		c3.25-5.976,5.11-9.679,6.892-13.697h0.211c1.991,3.983,4.027,7.801,7.364,13.645l8.21,15.28h9.619L470.467,104.392z"/>
</g>
<g>
	<path fill="#878786" d="M588.419,41.424h2.06v15.279h6.794v1.865h-8.854V41.424z"/>
	<path fill="#878786" d="M608.565,50.538h-6.145v6.186h6.872v1.847h-8.935V41.424h8.582v1.847h-6.52v5.44h6.146v1.826H608.565z"/>
	<path fill="#878786" d="M614.813,41.424v17.144h-2.063V41.424H614.813z"/>
	<path fill="#475782" d="M602.479,82.174h-9.74v9.819h10.897v2.925h-14.157V67.74h13.588v2.928h-10.328v8.601h9.74V82.174
		L602.479,82.174z"/>
	<path fill="#475782" d="M609.097,67.74h3.259v24.194h10.743V94.9h-14.023V67.74H609.097z"/>
	<path fill="#475782" d="M640.988,82.174h-9.741v9.819h10.899v2.925h-14.158V67.74h13.569v2.928h-10.329v8.601h9.739v2.905H640.988z
		"/>
	<path fill="#475782" d="M665.164,94.034c-1.179,0.63-3.574,1.299-6.637,1.299c-7.091,0-12.392-4.832-12.392-13.767
		c0-8.524,5.322-14.256,13.119-14.256c3.102,0,5.104,0.708,5.97,1.198l-0.804,2.848c-1.219-0.629-2.967-1.12-5.07-1.12
		c-5.91,0-9.798,4.065-9.798,11.215c0,6.638,3.537,10.899,9.645,10.899c2.001,0,4.003-0.431,5.321-1.119L665.164,94.034z"/>
	<path fill="#475782" d="M676.356,70.705h-7.66V67.74h18.616v2.965h-7.698V94.9h-3.258V70.705z"/>
	<path fill="#475782" d="M691.36,68.113c1.649-0.355,4.005-0.589,6.247-0.589c3.454,0,5.715,0.708,7.283,2.239
		c1.237,1.197,1.963,3.044,1.963,5.165c0,3.575-2.099,5.952-4.729,6.914v0.098c1.922,0.727,3.079,2.69,3.688,5.5
		c0.825,3.79,1.415,6.403,1.925,7.461h-3.359c-0.393-0.787-0.963-3.104-1.648-6.5c-0.744-3.712-2.103-5.166-5.048-5.262H694.6V94.9
		h-3.237V68.113H691.36z M694.6,80.486h3.319c3.478,0,5.677-2.042,5.677-5.165c0-3.535-2.357-5.068-5.775-5.068
		c-1.571,0-2.669,0.158-3.221,0.315V80.486z"/>
	<path fill="#475782" d="M734.328,81.056c0,9.326-5.263,14.296-11.668,14.296c-6.675,0-11.29-5.578-11.29-13.786
		c0-8.601,4.929-14.257,11.646-14.257C729.871,67.308,734.328,72.981,734.328,81.056z M714.789,81.486
		c0,5.813,2.926,11.016,8.05,11.016c5.165,0,8.052-5.125,8.052-11.292c0-5.401-2.61-11.057-8.014-11.057
		C717.477,70.153,714.789,75.537,714.789,81.486z"/>
	<path fill="#475782" d="M739.787,94.918V67.74h3.573l8.05,13.729c1.846,3.181,3.301,6.048,4.478,8.837l0.079-0.039
		c-0.295-3.634-0.354-6.932-0.354-11.156v-11.39h3.063V94.88h-3.298l-7.994-13.767c-1.726-3.044-3.416-6.148-4.672-9.093
		l-0.118,0.04c0.197,3.438,0.235,6.716,0.235,11.214V94.9h-3.047v0.018H739.787z"/>
	<path fill="#475782" d="M768.871,67.74V94.9h-3.26V67.74H768.871z"/>
	<path fill="#475782" d="M793.377,94.034c-1.178,0.63-3.572,1.299-6.635,1.299c-7.093,0-12.394-4.832-12.394-13.767
		c0-8.524,5.324-14.256,13.119-14.256c3.104,0,5.105,0.708,5.97,1.198l-0.806,2.848c-1.216-0.629-2.965-1.12-5.063-1.12
		c-5.913,0-9.802,4.065-9.802,11.215c0,6.638,3.537,10.899,9.645,10.899c2,0,4.005-0.431,5.321-1.119L793.377,94.034z"/>
	<path fill="#475782" d="M610.688,119.308c-0.196-3.769-0.412-8.363-0.392-11.723h-0.1c-0.865,3.142-1.904,6.58-3.16,10.289
		l-4.44,13.177h-2.453l-4.104-12.94c-1.2-3.831-2.18-7.324-2.887-10.545h-0.079c-0.079,3.379-0.256,7.915-0.491,11.979
		l-0.668,11.664h-3.086l1.751-27.155h4.145l4.282,13.152c1.039,3.319,1.884,6.328,2.531,9.151h0.099
		c0.667-2.744,1.532-5.753,2.651-9.151l4.479-13.152h4.161l1.553,27.159h-3.202L610.688,119.308z"/>
	<path fill="#475782" d="M624.435,122.706l-2.593,8.541h-3.358l8.541-27.159h3.908l8.581,27.159h-3.478l-2.689-8.541H624.435z
		 M632.701,119.958l-2.494-7.817c-0.549-1.788-0.923-3.398-1.296-4.949h-0.078c-0.354,1.59-0.747,3.24-1.236,4.91l-2.477,7.856
		H632.701z"/>
	<path fill="#475782" d="M647.724,104.068v27.159h-3.259v-27.159H647.724z"/>
	<path fill="#475782" d="M654.657,104.068h3.259v24.194h10.742v2.965h-14.021v-27.159H654.657z"/>
	<path fill="#475782" d="M673.529,104.442c1.434-0.335,3.671-0.591,5.931-0.591c3.258,0,5.34,0.591,6.893,1.969
		c1.297,1.056,2.101,2.689,2.101,4.809c0,2.635-1.631,4.931-4.262,5.95v0.099c2.396,0.63,5.185,2.748,5.185,6.816
		c0,2.315-0.844,4.104-2.16,5.398c-1.726,1.748-4.555,2.556-8.681,2.556c-2.258,0-3.947-0.178-5.046-0.296v-26.71H673.529z
		 M676.77,115.578h2.984c3.399,0,5.419-1.945,5.419-4.595c0-3.143-2.22-4.419-5.501-4.419c-1.512,0-2.355,0.118-2.887,0.256v8.758
		H676.77L676.77,115.578z M676.77,128.577c0.668,0.138,1.552,0.177,2.73,0.177c3.376,0,6.479-1.334,6.479-5.28
		c0-3.693-2.966-5.245-6.501-5.245h-2.711v10.349H676.77z"/>
	<path fill="#475782" d="M716.514,117.382c0,9.329-5.262,14.299-11.664,14.299c-6.677,0-11.29-5.576-11.29-13.783
		c0-8.604,4.927-14.258,11.642-14.258C712.056,103.635,716.514,109.314,716.514,117.382z M696.995,117.819
		c0,5.812,2.926,11.014,8.054,11.014c5.164,0,8.051-5.123,8.051-11.294c0-5.398-2.613-11.053-8.014-11.053
		C699.667,106.486,696.995,111.865,696.995,117.819z"/>
	<path fill="#475782" d="M734.758,131.247l-3.221-6.005c-1.315-2.3-2.1-3.792-2.887-5.363h-0.079
		c-0.709,1.571-1.434,3.024-2.709,5.383l-3.024,5.99h-3.751l7.698-13.768l-7.404-13.412h3.752l3.335,6.383
		c0.925,1.749,1.631,3.123,2.316,4.596h0.078c0.709-1.615,1.376-2.871,2.301-4.596l3.414-6.383h3.772l-7.679,13.235l7.855,13.924
		h-3.772v0.016H734.758z"/>
	<path fill="#878786" d="M602.007,151.945c0,5.891-3.318,9.032-7.364,9.032c-4.202,0-7.128-3.512-7.128-8.698
		c0-5.438,3.104-8.994,7.345-8.994C599.179,143.27,602.007,146.861,602.007,151.945z M589.674,152.22
		c0,3.675,1.848,6.955,5.084,6.955c3.262,0,5.089-3.221,5.089-7.132c0-3.414-1.65-6.97-5.069-6.97
		C591.364,145.073,589.674,148.472,589.674,152.22z"/>
	<path fill="#878786" d="M605.463,143.777c1.043-0.235,2.535-0.374,3.947-0.374c2.18,0,3.613,0.453,4.596,1.414
		c0.785,0.748,1.235,1.926,1.235,3.261c0,2.256-1.334,3.749-2.983,4.359v0.055c1.217,0.457,1.943,1.689,2.316,3.481
		c0.531,2.395,0.904,4.024,1.218,4.714h-2.121c-0.254-0.492-0.609-1.97-1.04-4.108c-0.473-2.354-1.338-3.26-3.183-3.319h-1.942
		v7.428h-2.043V143.777z M607.506,151.595h2.103c2.199,0,3.594-1.3,3.594-3.261c0-2.222-1.493-3.201-3.653-3.201
		c-1.002,0-1.69,0.098-2.025,0.196v6.266H607.506z"/>
	<path fill="#878786" d="M631.111,159.919c-0.924,0.374-2.749,0.94-4.893,0.94c-2.413,0-4.398-0.646-5.929-2.256
		c-1.375-1.414-2.22-3.693-2.2-6.363c0-5.104,3.261-8.856,8.583-8.856c1.825,0,3.28,0.433,3.969,0.788l-0.512,1.808
		c-0.846-0.414-1.904-0.749-3.515-0.749c-3.85,0-6.384,2.596-6.384,6.896c0,4.34,2.415,6.911,6.127,6.911
		c1.337,0,2.259-0.197,2.73-0.469v-5.107h-3.223v-1.764h5.224v8.226h0.021V159.919z"/>
	<path fill="#878786" d="M637.611,155.304l-1.629,5.384h-2.124l5.401-17.146h2.456l5.419,17.146h-2.199l-1.71-5.384H637.611z
		 M642.815,153.575l-1.571-4.926c-0.353-1.123-0.589-2.143-0.822-3.123h-0.059c-0.235,1-0.472,2.044-0.787,3.103l-1.57,4.966h4.812
		v-0.02H642.815z"/>
	<path fill="#878786" d="M650.257,160.706v-17.145h2.261l5.084,8.658c1.157,2.005,2.08,3.813,2.827,5.577l0.058-0.021
		c-0.177-2.295-0.216-4.378-0.216-7.024v-7.19h1.927v17.145h-2.084l-5.046-8.698c-1.1-1.922-2.159-3.867-2.946-5.733l-0.078,0.02
		c0.119,2.178,0.157,4.241,0.157,7.068v7.328h-1.945v0.016H650.257z"/>
	<path fill="#878786" d="M668.62,143.542v17.146h-2.061v-17.146H668.62z"/>
	<path fill="#878786" d="M671.918,159.411l8.798-13.924v-0.079h-8.052v-1.847h10.721v1.358l-8.759,13.841v0.079h8.876v1.848h-11.586
		v-1.276H671.918z"/>
	<path fill="#878786" d="M689.415,155.304l-1.63,5.384h-2.122l5.401-17.146h2.455l5.42,17.146h-2.199l-1.71-5.384H689.415z
		 M694.621,153.575l-1.569-4.926c-0.356-1.123-0.593-2.143-0.827-3.123h-0.059c-0.234,1-0.472,2.044-0.786,3.103l-1.57,4.966h4.813
		v-0.02H694.621z"/>
	<path fill="#878786" d="M703.261,145.428h-4.83v-1.866h11.763v1.866h-4.852v15.278h-2.062v-15.278H703.261z"/>
	<path fill="#878786" d="M714.809,143.542v17.146h-2.063v-17.146H714.809z"/>
	<path fill="#878786" d="M732.757,151.945c0,5.891-3.319,9.032-7.365,9.032c-4.201,0-7.125-3.512-7.125-8.698
		c0-5.438,3.103-8.994,7.343-8.994C729.949,143.27,732.757,146.861,732.757,151.945z M720.424,152.22
		c0,3.675,1.847,6.955,5.083,6.955c3.262,0,5.089-3.221,5.089-7.132c0-3.414-1.65-6.97-5.068-6.97
		C722.133,145.073,720.424,148.472,720.424,152.22z"/>
	<path fill="#878786" d="M736.234,160.706v-17.145h2.256l5.085,8.658c1.161,2.005,2.083,3.813,2.831,5.577l0.057-0.021
		c-0.177-2.295-0.215-4.378-0.215-7.024v-7.19h1.922v17.145h-2.079l-5.048-8.698c-1.1-1.922-2.158-3.867-2.945-5.733l-0.079,0.02
		c0.12,2.178,0.157,4.241,0.157,7.068v7.328h-1.945v0.016H736.234z"/>
</g>
<line fill="#878786" stroke="#878786" stroke-miterlimit="10" x1="538.842" y1="15.691" x2="538.842" y2="184.309"/>
</svg>
