<?xml version="1.0" encoding="utf-8"?>
<!-- Generator: Adobe Illustrator 23.0.3, SVG Export Plug-In . SVG Version: 6.00 Build 0)  -->
<svg version="1.1" id="Layer_1" xmlns="http://www.w3.org/2000/svg" xmlns:xlink="http://www.w3.org/1999/xlink" x="0px" y="0px"
	 viewBox="0 0 628.33 141.93" style="enable-background:new 0 0 628.33 141.93;" xml:space="preserve">
<style type="text/css">
	.st0{filter:url(#Adobe_OpacityMaskFilter);}
	.st1{fill-rule:evenodd;clip-rule:evenodd;fill:#FFFFFF;}
	.st2{mask:url(#mask-2_4_);fill-rule:evenodd;clip-rule:evenodd;fill:#455580;}
	.st3{filter:url(#Adobe_OpacityMaskFilter_1_);}
	.st4{mask:url(#mask-2_3_);fill-rule:evenodd;clip-rule:evenodd;fill:#455580;}
	.st5{fill:#455580;}
	.st6{fill:#878786;}
	.st7{filter:url(#Adobe_OpacityMaskFilter_2_);}
	.st8{mask:url(#mask-2_2_);fill-rule:evenodd;clip-rule:evenodd;fill:#878786;}
</style>
<g>
	<g transform="translate(-98.000000, -47.000000)">
		<g id="Page-1_1_" transform="translate(98.000000, 47.000000)">
			<g id="Clip-30_1_">
			</g>
			<defs>
				<filter id="Adobe_OpacityMaskFilter" filterUnits="userSpaceOnUse" x="0" y="70.96" width="144.5" height="70.96">
					<feColorMatrix  type="matrix" values="1 0 0 0 0  0 1 0 0 0  0 0 1 0 0  0 0 0 1 0"/>
				</filter>
			</defs>
			<mask maskUnits="userSpaceOnUse" x="0" y="70.96" width="144.5" height="70.96" id="mask-2_4_">
				<g class="st0">
					<polygon id="path-1_4_" class="st1" points="0,141.93 419,141.93 419,0 0,0 					"/>
				</g>
			</mask>
			<path id="Fill-53_1_" class="st2" d="M59.21,128.03c-32.6,0-59.05-25.52-59.2-57.06c0,0.19-0.01,0.37-0.01,0.56
				c0,38.88,32.54,70.4,72.69,70.4c36.29,0,66.37-25.77,71.81-59.44h-27.34C111.54,108.49,87.73,128.03,59.21,128.03"/>
			<defs>
				<filter id="Adobe_OpacityMaskFilter_1_" filterUnits="userSpaceOnUse" x="0" y="0" width="144.5" height="70.96">
					<feColorMatrix  type="matrix" values="1 0 0 0 0  0 1 0 0 0  0 0 1 0 0  0 0 0 1 0"/>
				</filter>
			</defs>
			<mask maskUnits="userSpaceOnUse" x="0" y="0" width="144.5" height="70.96" id="mask-2_3_">
				<g class="st3">
					<polygon id="path-1_3_" class="st1" points="0,141.93 419,141.93 419,0 0,0 					"/>
				</g>
			</mask>
			<path id="Fill-54_1_" class="st4" d="M85.29,13.9c32.6,0,59.05,25.52,59.2,57.06c0-0.19,0.01-0.37,0.01-0.56
				C144.5,31.52,111.96,0,71.81,0C35.51,0,5.44,25.76,0,59.44h27.35C32.97,33.43,56.77,13.9,85.29,13.9"/>
		</g>
	</g>
</g>
<g>
	<g transform="translate(0.000000,511.000000) scale(0.100000,-0.100000)">
		<path class="st5" d="M696.22,4790.81c-162.05-15.81-295.05-129.45-335.09-286.5c-8.55-33.57-11.14-55.04-11.14-92.81
			c0-36.96,2.42-57.14,10.49-90.22c7.27-29.05,14.69-49.56,28.08-76.83c23.41-47.45,53.59-86.83,92.49-120.41
			c56.01-48.1,122.67-78.44,197.24-89.74c25.34-3.87,77.64-3.71,103.3,0c41.96,6.3,78.61,17.75,115.4,35.83
			c77.31,38.09,136.23,97,174.32,174.32c18.08,36.8,29.54,73.44,35.83,115.4c3.71,25.66,3.88,77.96,0,103.3
			c-6.45,42.45-18.88,82.16-37.29,118.63c-56.65,112.02-162.53,188.37-286.66,206.6C762.24,4791.46,716.39,4792.75,696.22,4790.81z
			 M905.09,4539.02c4.03-1.61-0.16-5-85.07-67.79c-49.07-36.32-89.74-65.86-90.39-65.69c-0.64,0.16-32.6,23.57-71.02,51.98
			c-38.41,28.41-78.44,57.95-89.1,65.69c-17.91,13.24-18.88,14.2-15.33,15.66C559.67,4541.12,899.43,4541.12,905.09,4539.02z
			 M625.85,4428.45c47.13-34.38,87.64-64.56,90.07-66.82c3.71-3.39,6.13-4.2,13.08-4.2c5.16,0,9.85,0.97,12.27,2.75
			c2.26,1.45,45.52,33.25,96.04,70.53l92,67.63l0.48-93.78l0.33-93.94l-4.36-8.88c-3.39-6.46-6.62-10-12.42-13.72l-7.91-4.84
			l-173.83-0.48l-173.84-0.33l-8.72,4.52c-6.3,3.23-10,6.62-13.56,12.43l-4.84,7.75l-0.5,96.03l-0.33,96.04l5.16-4.03
			C537.88,4493.02,578.88,4462.99,625.85,4428.45z"/>
	</g>
</g>
<g>
	<polygon class="st6" points="214.47,115.52 258.56,115.52 258.56,107.71 223.35,107.71 223.35,79.45 258.31,79.45 258.31,71.64 
		223.35,71.64 223.35,44.17 258.56,44.17 258.56,36.35 214.47,36.35 	"/>
	<polygon class="st6" points="175.52,36.35 166,36.35 166,115.52 206.86,115.52 206.86,106.89 175.52,106.89 	"/>
	<rect x="272.68" y="36.35" class="st6" width="9.52" height="79.16"/>
	<path class="st6" d="M331.04,73.15v-0.31c7.67-2.95,12.4-9.69,12.4-17.34c0-6.2-2.34-10.92-6.13-14.02
		c-4.55-4.01-10.62-5.74-20.12-5.74c-6.56,0-13.11,0.72-17.29,1.7v77.89c3.18,0.39,8.14,0.88,14.7,0.88
		c12.01,0,20.26-2.31,25.31-7.43c3.78-3.78,6.27-9.01,6.27-15.77C346.18,81.17,338.02,74.97,331.04,73.15z M309.35,44.34
		c1.54-0.39,4.04-0.74,8.43-0.74c9.58,0,16.02,3.72,16.02,12.89c0,7.68-5.87,13.37-15.78,13.37h-8.68V44.34z M317.33,108.26
		c-3.42,0-6.04-0.1-7.97-0.52V77.56h7.88c10.33,0.02,18.96,4.53,18.96,15.29C336.2,104.37,327.16,108.26,317.33,108.26z"/>
	<path class="st6" d="M388.73,35.06c-19.57,0-33.94,16.49-33.94,41.57c0,23.92,13.51,40.18,32.95,40.18
		c18.69,0,34.01-14.5,34.01-41.67C421.75,51.62,408.75,35.06,388.73,35.06z M388.25,108.49c-14.93,0-23.45-15.16-23.45-32.1
		c0-17.32,7.83-33.01,23.57-33.01c15.75,0,23.37,16.45,23.37,32.21C411.73,93.58,403.29,108.49,388.25,108.49z"/>
	<path class="st6" d="M459.56,74.94l22.36-38.58h-10.97L461,54.96c-2.68,5.03-4.6,8.68-6.68,13.38h-0.24
		c-2.04-4.31-4.07-8.31-6.78-13.4l-9.75-18.59H426.6l21.58,39.06l-22.44,40.1h10.92l8.82-17.43c3.72-6.84,5.85-11.08,7.89-15.68
		h0.24c2.28,4.56,4.61,8.93,8.43,15.62l9.4,17.49h11.01L459.56,74.94z"/>
</g>
<defs>
	<filter id="Adobe_OpacityMaskFilter_2_" filterUnits="userSpaceOnUse" x="501.15" y="16" width="1.1" height="119.2">
		<feColorMatrix  type="matrix" values="1 0 0 0 0  0 1 0 0 0  0 0 1 0 0  0 0 0 1 0"/>
	</filter>
</defs>
<mask maskUnits="userSpaceOnUse" x="501.15" y="16" width="1.1" height="119.2" id="mask-2_2_">
	<g class="st7">
		<polygon id="path-1_2_" class="st1" points="196,140.93 615,140.93 615,-1 196,-1 		"/>
	</g>
</mask>
<polygon id="Fill-65_1_" class="st8" points="501.15,135.2 502.25,135.2 502.25,16 501.15,16 "/>
<g>
	<path class="st6" d="M523.94,44.84h1.05v7.78h3.46v0.95h-4.51V44.84z"/>
	<path class="st6" d="M534.2,49.48h-3.13v3.15h3.5v0.94h-4.55v-8.73h4.37v0.94h-3.32v2.77h3.13V49.48z"/>
	<path class="st6" d="M537.38,44.84v8.73h-1.05v-8.73H537.38z"/>
	<path class="st5" d="M531.1,65.59h-4.96v5h5.55v1.49h-7.21V58.24h6.92v1.49h-5.26v4.38h4.96V65.59z"/>
	<path class="st5" d="M534.47,58.24h1.66v12.32h5.47v1.51h-7.14V58.24z"/>
	<path class="st5" d="M550.71,65.59h-4.96v5h5.55v1.49h-7.21V58.24H551v1.49h-5.26v4.38h4.96V65.59z"/>
	<path class="st5" d="M563.02,71.63c-0.6,0.32-1.82,0.66-3.38,0.66c-3.61,0-6.31-2.46-6.31-7.01c0-4.34,2.71-7.26,6.68-7.26
		c1.58,0,2.6,0.36,3.04,0.61l-0.41,1.45c-0.62-0.32-1.51-0.57-2.58-0.57c-3.01,0-4.99,2.07-4.99,5.71c0,3.38,1.8,5.55,4.91,5.55
		c1.02,0,2.04-0.22,2.71-0.57L563.02,71.63z"/>
	<path class="st5" d="M568.72,59.75h-3.9v-1.51h9.48v1.51h-3.92v12.32h-1.66V59.75z"/>
	<path class="st5" d="M576.36,58.43c0.84-0.18,2.04-0.3,3.18-0.3c1.76,0,2.91,0.36,3.71,1.14c0.63,0.61,1,1.55,1,2.63
		c0,1.82-1.07,3.03-2.41,3.52v0.05c0.98,0.37,1.57,1.37,1.88,2.8c0.42,1.93,0.72,3.26,0.98,3.8h-1.71c-0.2-0.4-0.49-1.58-0.84-3.31
		c-0.38-1.89-1.07-2.63-2.57-2.68h-1.57v5.99h-1.65V58.43z M578.01,64.73h1.69c1.77,0,2.89-1.04,2.89-2.63c0-1.8-1.2-2.58-2.94-2.58
		c-0.8,0-1.36,0.08-1.64,0.16V64.73z"/>
	<path class="st5" d="M598.24,65.02c0,4.75-2.68,7.28-5.94,7.28c-3.4,0-5.75-2.84-5.75-7.02c0-4.38,2.51-7.26,5.93-7.26
		C595.97,58.02,598.24,60.91,598.24,65.02z M588.29,65.24c0,2.96,1.49,5.61,4.1,5.61c2.63,0,4.1-2.61,4.1-5.75
		c0-2.75-1.33-5.63-4.08-5.63C589.66,59.47,588.29,62.21,588.29,65.24z"/>
	<path class="st5" d="M601.02,72.08V58.24h1.82l4.1,6.99c0.94,1.62,1.68,3.08,2.28,4.5l0.04-0.02c-0.15-1.85-0.18-3.53-0.18-5.68
		v-5.8h1.56v13.83h-1.68l-4.07-7.01c-0.88-1.55-1.74-3.13-2.38-4.63l-0.06,0.02c0.1,1.75,0.12,3.42,0.12,5.71v5.92H601.02z"/>
	<path class="st5" d="M615.83,58.24v13.83h-1.66V58.24H615.83z"/>
	<path class="st5" d="M628.31,71.63c-0.6,0.32-1.82,0.66-3.38,0.66c-3.61,0-6.31-2.46-6.31-7.01c0-4.34,2.71-7.26,6.68-7.26
		c1.58,0,2.6,0.36,3.04,0.61l-0.41,1.45c-0.62-0.32-1.51-0.57-2.58-0.57c-3.01,0-4.99,2.07-4.99,5.71c0,3.38,1.8,5.55,4.91,5.55
		c1.02,0,2.04-0.22,2.71-0.57L628.31,71.63z"/>
	<path class="st5" d="M535.28,84.5c-0.1-1.92-0.21-4.26-0.2-5.97h-0.05c-0.44,1.6-0.97,3.35-1.61,5.24l-2.26,6.71h-1.25l-2.09-6.59
		c-0.61-1.95-1.11-3.73-1.47-5.37h-0.04c-0.04,1.72-0.13,4.03-0.25,6.1l-0.34,5.94h-1.57l0.89-13.83h2.11l2.18,6.7
		c0.53,1.69,0.96,3.22,1.29,4.66h0.05c0.34-1.4,0.78-2.93,1.35-4.66l2.28-6.7h2.12l0.79,13.83h-1.63L535.28,84.5z"/>
	<path class="st5" d="M542.28,86.23l-1.32,4.35h-1.71l4.35-13.83h1.99l4.37,13.83h-1.77l-1.37-4.35H542.28z M546.49,84.83
		l-1.27-3.98c-0.28-0.91-0.47-1.73-0.66-2.52h-0.04c-0.18,0.81-0.38,1.65-0.63,2.5l-1.26,4H546.49z"/>
	<path class="st5" d="M554.14,76.74v13.83h-1.66V76.74H554.14z"/>
	<path class="st5" d="M557.67,76.74h1.66v12.32h5.47v1.51h-7.14V76.74z"/>
	<path class="st5" d="M567.28,76.93c0.73-0.17,1.87-0.3,3.02-0.3c1.66,0,2.72,0.3,3.51,1c0.66,0.54,1.07,1.37,1.07,2.45
		c0,1.34-0.83,2.51-2.17,3.03v0.05c1.22,0.32,2.64,1.4,2.64,3.47c0,1.18-0.43,2.09-1.1,2.75c-0.88,0.89-2.32,1.3-4.42,1.3
		c-1.15,0-2.01-0.09-2.57-0.15V76.93z M568.93,82.6h1.52c1.73,0,2.76-0.99,2.76-2.34c0-1.6-1.13-2.25-2.8-2.25
		c-0.77,0-1.2,0.06-1.47,0.13V82.6z M568.93,89.22c0.34,0.07,0.79,0.09,1.39,0.09c1.72,0,3.3-0.68,3.3-2.69
		c0-1.88-1.51-2.67-3.31-2.67h-1.38V89.22z"/>
	<path class="st5" d="M589.17,83.52c0,4.75-2.68,7.28-5.94,7.28c-3.4,0-5.75-2.84-5.75-7.02c0-4.38,2.51-7.26,5.93-7.26
		C586.9,76.52,589.17,79.41,589.17,83.52z M579.23,83.74c0,2.96,1.49,5.61,4.1,5.61c2.63,0,4.1-2.61,4.1-5.75
		c0-2.75-1.33-5.63-4.08-5.63C580.59,77.97,579.23,80.71,579.23,83.74z"/>
	<path class="st5" d="M598.46,90.58l-1.64-3.06c-0.67-1.17-1.07-1.93-1.47-2.73h-0.04c-0.36,0.8-0.73,1.54-1.38,2.74l-1.54,3.05
		h-1.91l3.92-7.01l-3.77-6.83h1.91l1.7,3.25c0.47,0.89,0.83,1.59,1.18,2.34h0.04c0.36-0.82,0.7-1.46,1.17-2.34l1.74-3.25h1.92
		l-3.91,6.74l4,7.09H598.46z"/>
	<path class="st6" d="M530.86,101.12c0,3-1.69,4.6-3.75,4.6c-2.14,0-3.63-1.79-3.63-4.43c0-2.77,1.58-4.58,3.74-4.58
		C529.42,96.7,530.86,98.53,530.86,101.12z M524.58,101.26c0,1.87,0.94,3.54,2.59,3.54c1.66,0,2.59-1.64,2.59-3.63
		c0-1.74-0.84-3.55-2.58-3.55C525.44,97.62,524.58,99.35,524.58,101.26z"/>
	<path class="st6" d="M532.62,96.96c0.53-0.12,1.29-0.19,2.01-0.19c1.11,0,1.84,0.23,2.34,0.72c0.4,0.38,0.63,0.98,0.63,1.66
		c0,1.15-0.68,1.91-1.52,2.22v0.03c0.62,0.23,0.99,0.86,1.18,1.77c0.27,1.22,0.46,2.05,0.62,2.4h-1.08c-0.13-0.25-0.31-1-0.53-2.09
		c-0.24-1.2-0.68-1.66-1.62-1.69h-0.99v3.78h-1.04V96.96z M533.66,100.94h1.07c1.12,0,1.83-0.66,1.83-1.66
		c0-1.13-0.76-1.63-1.86-1.63c-0.51,0-0.86,0.05-1.03,0.1V100.94z"/>
	<path class="st6" d="M545.68,105.18c-0.47,0.19-1.4,0.48-2.49,0.48c-1.23,0-2.24-0.33-3.02-1.15c-0.7-0.72-1.13-1.88-1.12-3.24
		c0-2.6,1.66-4.51,4.37-4.51c0.93,0,1.67,0.22,2.02,0.4l-0.26,0.92c-0.43-0.21-0.97-0.38-1.79-0.38c-1.96,0-3.25,1.32-3.25,3.51
		c0,2.21,1.23,3.52,3.12,3.52c0.68,0,1.15-0.1,1.39-0.24v-2.6h-1.64v-0.9h2.66V105.18z"/>
	<path class="st6" d="M548.99,102.83l-0.83,2.74h-1.08l2.75-8.73h1.25l2.76,8.73h-1.12l-0.87-2.74H548.99z M551.64,101.95l-0.8-2.51
		c-0.18-0.57-0.3-1.09-0.42-1.59h-0.03c-0.12,0.51-0.24,1.04-0.4,1.58l-0.8,2.53H551.64z"/>
	<path class="st6" d="M555.43,105.58v-8.73h1.15l2.59,4.41c0.59,1.02,1.06,1.94,1.44,2.84l0.03-0.01c-0.09-1.17-0.11-2.23-0.11-3.58
		v-3.66h0.98v8.73h-1.06l-2.57-4.43c-0.56-0.98-1.1-1.97-1.5-2.92l-0.04,0.01c0.06,1.11,0.08,2.16,0.08,3.6v3.73H555.43z"/>
	<path class="st6" d="M564.78,96.84v8.73h-1.05v-8.73H564.78z"/>
	<path class="st6" d="M566.46,104.92l4.48-7.09v-0.04h-4.1v-0.94h5.46v0.69l-4.46,7.05v0.04h4.52v0.94h-5.9V104.92z"/>
	<path class="st6" d="M575.37,102.83l-0.83,2.74h-1.08l2.75-8.73h1.25l2.76,8.73h-1.12l-0.87-2.74H575.37z M578.02,101.95l-0.8-2.51
		c-0.18-0.57-0.3-1.09-0.42-1.59h-0.03c-0.12,0.51-0.24,1.04-0.4,1.58l-0.8,2.53H578.02z"/>
	<path class="st6" d="M582.42,97.8h-2.46v-0.95h5.99v0.95h-2.47v7.78h-1.05V97.8z"/>
	<path class="st6" d="M588.3,96.84v8.73h-1.05v-8.73H588.3z"/>
	<path class="st6" d="M597.44,101.12c0,3-1.69,4.6-3.75,4.6c-2.14,0-3.63-1.79-3.63-4.43c0-2.77,1.58-4.58,3.74-4.58
		C596.01,96.7,597.44,98.53,597.44,101.12z M591.16,101.26c0,1.87,0.94,3.54,2.59,3.54c1.66,0,2.59-1.64,2.59-3.63
		c0-1.74-0.84-3.55-2.58-3.55C592.03,97.62,591.16,99.35,591.16,101.26z"/>
	<path class="st6" d="M599.21,105.58v-8.73h1.15l2.59,4.41c0.59,1.02,1.06,1.94,1.44,2.84l0.03-0.01c-0.09-1.17-0.11-2.23-0.11-3.58
		v-3.66h0.98v8.73h-1.06l-2.57-4.43c-0.56-0.98-1.1-1.97-1.5-2.92l-0.04,0.01c0.06,1.11,0.08,2.16,0.08,3.6v3.73H599.21z"/>
</g>
</svg>
