<?xml version="1.0" encoding="utf-8"?>
<!-- Generator: Adobe Illustrator 23.0.3, SVG Export Plug-In . SVG Version: 6.00 Build 0)  -->
<svg version="1.1" id="Layer_1" xmlns="http://www.w3.org/2000/svg" xmlns:xlink="http://www.w3.org/1999/xlink" x="0px" y="0px"
	 viewBox="0 0 144.5 141.93" style="enable-background:new 0 0 144.5 141.93;" xml:space="preserve">
<style type="text/css">
	.st0{filter:url(#Adobe_OpacityMaskFilter);}
	.st1{fill-rule:evenodd;clip-rule:evenodd;fill:#FFFFFF;}
	.st2{mask:url(#mask-2_4_);fill-rule:evenodd;clip-rule:evenodd;fill:#455580;}
	.st3{filter:url(#Adobe_OpacityMaskFilter_1_);}
	.st4{mask:url(#mask-2_1_);fill-rule:evenodd;clip-rule:evenodd;fill:#455580;}
	.st5{fill:#455580;}
</style>
<g>
	<g transform="translate(-98.000000, -47.000000)">
		<g id="Page-1_1_" transform="translate(98.000000, 47.000000)">
			<g id="Clip-30_1_">
			</g>
			<defs>
				<filter id="Adobe_OpacityMaskFilter" filterUnits="userSpaceOnUse" x="0" y="70.96" width="144.5" height="70.96">
					<feColorMatrix  type="matrix" values="1 0 0 0 0  0 1 0 0 0  0 0 1 0 0  0 0 0 1 0"/>
				</filter>
			</defs>
			<mask maskUnits="userSpaceOnUse" x="0" y="70.96" width="144.5" height="70.96" id="mask-2_4_">
				<g class="st0">
					<polygon id="path-1_4_" class="st1" points="0,141.93 419,141.93 419,0 0,0 					"/>
				</g>
			</mask>
			<path id="Fill-53_1_" class="st2" d="M59.21,128.03c-32.6,0-59.05-25.52-59.2-57.06c0,0.19-0.01,0.37-0.01,0.56
				c0,38.88,32.54,70.4,72.69,70.4c36.29,0,66.37-25.77,71.81-59.44h-27.34C111.54,108.49,87.73,128.03,59.21,128.03"/>
			<defs>
				<filter id="Adobe_OpacityMaskFilter_1_" filterUnits="userSpaceOnUse" x="0" y="0" width="144.5" height="70.96">
					<feColorMatrix  type="matrix" values="1 0 0 0 0  0 1 0 0 0  0 0 1 0 0  0 0 0 1 0"/>
				</filter>
			</defs>
			<mask maskUnits="userSpaceOnUse" x="0" y="0" width="144.5" height="70.96" id="mask-2_1_">
				<g class="st3">
					<polygon id="path-1_1_" class="st1" points="0,141.93 419,141.93 419,0 0,0 					"/>
				</g>
			</mask>
			<path id="Fill-54_1_" class="st4" d="M85.29,13.9c32.6,0,59.05,25.52,59.2,57.06c0-0.19,0.01-0.37,0.01-0.56
				C144.5,31.52,111.96,0,71.81,0C35.51,0,5.44,25.76,0,59.44h27.35C32.97,33.43,56.77,13.9,85.29,13.9"/>
		</g>
	</g>
</g>
<g>
	<g transform="translate(0.000000,511.000000) scale(0.100000,-0.100000)">
		<path class="st5" d="M696.22,4790.81c-162.05-15.81-295.05-129.45-335.09-286.5c-8.55-33.57-11.14-55.04-11.14-92.81
			c0-36.96,2.42-57.14,10.49-90.22c7.27-29.05,14.69-49.56,28.08-76.83c23.41-47.45,53.59-86.83,92.49-120.41
			c56.01-48.1,122.67-78.44,197.24-89.74c25.34-3.87,77.64-3.71,103.3,0c41.96,6.3,78.61,17.75,115.4,35.83
			c77.31,38.09,136.23,97,174.32,174.32c18.08,36.8,29.54,73.44,35.83,115.4c3.71,25.66,3.88,77.96,0,103.3
			c-6.45,42.45-18.88,82.16-37.29,118.63c-56.65,112.02-162.53,188.37-286.66,206.6C762.24,4791.46,716.39,4792.75,696.22,4790.81z
			 M905.09,4539.02c4.03-1.61-0.16-5-85.07-67.79c-49.07-36.32-89.74-65.86-90.39-65.69c-0.64,0.16-32.6,23.57-71.02,51.98
			c-38.41,28.41-78.44,57.95-89.1,65.69c-17.91,13.24-18.88,14.2-15.33,15.66C559.67,4541.12,899.43,4541.12,905.09,4539.02z
			 M625.85,4428.45c47.13-34.38,87.64-64.56,90.07-66.82c3.71-3.39,6.13-4.2,13.08-4.2c5.16,0,9.85,0.97,12.27,2.75
			c2.26,1.45,45.52,33.25,96.04,70.53l92,67.63l0.48-93.78l0.33-93.94l-4.36-8.88c-3.39-6.46-6.62-10-12.42-13.72l-7.91-4.84
			l-173.83-0.48l-173.84-0.33l-8.72,4.52c-6.3,3.23-10,6.62-13.56,12.43l-4.84,7.75l-0.5,96.03l-0.33,96.04l5.16-4.03
			C537.88,4493.02,578.88,4462.99,625.85,4428.45z"/>
	</g>
</g>
</svg>
